<?xml version="1.0" encoding="UTF-8"?> <svg xmlns="http://www.w3.org/2000/svg" width="16" height="16" viewBox="0 0 16 16" fill="none"><g id="Basic icons / github"><path id="Icon" d="M5.9987 12.6669C2.66536 13.6669 2.66536 11.0003 1.33203 10.6669M10.6654 14.6669V12.0869C10.6904 11.769 10.6474 11.4495 10.5394 11.1495C10.4313 10.8495 10.2607 10.5759 10.0387 10.3469C12.132 10.1136 14.332 9.32027 14.332 5.68027C14.3319 4.74949 13.9738 3.85441 13.332 3.18027C13.6359 2.36594 13.6144 1.46584 13.272 0.66694C13.272 0.66694 12.4854 0.433607 10.6654 1.65361C9.13737 1.23949 7.52669 1.23949 5.9987 1.65361C4.1787 0.433607 3.39203 0.66694 3.39203 0.66694C3.04962 1.46584 3.02813 2.36594 3.33203 3.18027C2.68545 3.85941 2.32705 4.76258 2.33203 5.70027C2.33203 9.31361 4.53203 10.1069 6.62536 10.3669C6.40603 10.5936 6.23687 10.8639 6.1289 11.1602C6.02093 11.4566 5.97657 11.7723 5.9987 12.0869V14.6669" stroke="#163156" stroke-linecap="round" stroke-linejoin="round"></path></g></svg> 