<?xml version="1.0" encoding="UTF-8"?> <svg xmlns="http://www.w3.org/2000/svg" width="16" height="16" viewBox="0 0 16 16" fill="none"><g id="Basic icons / LinkedIn-2"><path id="Vector" d="M4.66731 3.335C4.67807 3.51264 4.65101 3.69055 4.58791 3.85696C4.52481 4.02337 4.42711 4.17449 4.30126 4.30034C4.17542 4.42618 4.0243 4.52388 3.85789 4.58698C3.69148 4.65008 3.51357 4.67714 3.33592 4.66638C3.16463 4.67344 2.99366 4.64608 2.83313 4.58591C2.67259 4.52574 2.52575 4.43399 2.4013 4.31608C2.27684 4.19818 2.17729 4.05651 2.10854 3.89946C2.03979 3.74241 2.00323 3.57317 2.00103 3.40174C1.99398 3.22122 2.02316 3.04111 2.08687 2.87206C2.15057 2.703 2.2475 2.54842 2.37193 2.41744C2.49636 2.28646 2.64576 2.18174 2.81133 2.10946C2.9769 2.03718 3.15528 1.9988 3.33592 1.99659C3.51269 1.9917 3.68859 2.02303 3.85279 2.08865C4.017 2.15428 4.16604 2.2528 4.29075 2.37817C4.41546 2.50354 4.5132 2.6531 4.57796 2.81765C4.64272 2.9822 4.67312 3.15826 4.66731 3.335Z" fill="#163156"></path><path id="Vector_2" d="M4.66628 5.33331H2V13.9996H4.66628V5.33331Z" fill="#163156"></path><path id="Vector_3" d="M11.0659 5.48489C10.5646 5.47077 10.0681 5.58621 9.62439 5.82005C9.18071 6.0539 8.80484 6.39823 8.53313 6.81979H8.46638L8.33289 5.68512H5.93359C5.93359 6.41932 6.00034 7.287 6.00034 8.28466V14.0177H8.66661V9.26826C8.65222 9.04363 8.67477 8.81815 8.73336 8.60082C8.93359 8.1336 9.26732 7.54695 9.998 7.54695C10.9324 7.54695 11.3329 8.34789 11.3329 9.4158V14.0142H13.9992V9.09613C13.9992 6.60199 12.731 5.48489 11.0659 5.48489Z" fill="#163156"></path></g></svg> 