<?xml version="1.0" encoding="UTF-8"?> <svg xmlns="http://www.w3.org/2000/svg" width="14" height="8" viewBox="0 0 14 8" fill="none"><g id="Group"><path id="Vector" d="M3.96121 0.0240784C6.13167 0.0240784 7.89103 1.79572 7.89103 3.98101C7.89103 6.16629 6.13154 7.9378 3.96121 7.9378C1.79088 7.9378 0.03125 6.16629 0.03125 3.98101C0.03125 1.79572 1.79074 0.0240784 3.96121 0.0240784ZM10.2371 0.255865C11.3223 0.255865 12.202 1.9235 12.202 3.98101H12.2022C12.2022 6.03798 11.3224 7.70615 10.2372 7.70615C9.15197 7.70615 8.27222 6.03798 8.27222 3.98101C8.27222 1.92403 9.15184 0.255865 10.2371 0.255865ZM13.2745 0.643867C13.6561 0.643867 13.9655 2.13793 13.9655 3.98101C13.9655 5.82355 13.6562 7.31814 13.2745 7.31814C12.8927 7.31814 12.5835 5.82395 12.5835 3.98101C12.5835 2.13806 12.8929 0.643867 13.2745 0.643867Z" fill="#163156"></path></g></svg> 