<svg width="16" height="16" viewBox="0 0 16 16" fill="none" xmlns="http://www.w3.org/2000/svg">
<path d="M8 0C12.4062 0 16 3.59375 16 8C16 12.4375 12.4062 16 8 16C3.5625 16 0 12.4375 0 8C0 3.59375 3.5625 0 8 0ZM8 14.5C11.5625 14.5 14.5 11.5938 14.5 8C14.5 4.4375 11.5625 1.5 8 1.5C4.40625 1.5 1.5 4.4375 1.5 8C1.5 11.5938 4.40625 14.5 8 14.5ZM11.1875 9C11.5312 9.1875 11.6562 9.65625 11.4375 10C11.3125 10.25 11.0625 10.375 10.8125 10.375C10.6562 10.375 10.5312 10.3438 10.4375 10.2812L7.625 8.65625C7.375 8.53125 7.25 8.28125 7.25 8V3.75C7.25 3.34375 7.5625 3 8 3C8.40625 3 8.75 3.34375 8.75 3.75V7.59375L11.1875 9Z" fill="#1CACA5"/>
</svg>
