<?xml version="1.0" encoding="UTF-8"?> <svg xmlns="http://www.w3.org/2000/svg" id="Layer_1" version="1.1" viewBox="0 0 168.9 48"><defs><style> .st0, .st1 { fill-rule: evenodd; } .st0, .st2 { fill: #163156; } .st1 { fill: #ef4e23; } .st2 { stroke: #163156; stroke-miterlimit: 10; stroke-width: .2px; } </style></defs><path class="st1" d="M33,14.8c1.6.3,2.7,1.9,2.3,3.5-.3,1.6-1.9,2.7-3.5,2.3-1.6-.3-2.7-1.9-2.3-3.5.3-1.6,1.9-2.7,3.5-2.3Z"></path><path class="st1" d="M6.9,9.7c1.3.3,2.1,1.5,1.9,2.8-.3,1.3-1.5,2.1-2.8,1.9-1.3-.3-2.2-1.5-1.9-2.8.2-1.3,1.5-2.2,2.8-1.9Z"></path><path class="st1" d="M4.8,17.5c.8.2,1.4,1,1.2,1.8-.2.8-1,1.4-1.8,1.2-.8-.2-1.4-1-1.2-1.8s1-1.4,1.8-1.2Z"></path><path class="st1" d="M17.4,31.2c1,.2,1.6,1.1,1.4,2.1s-1.1,1.6-2.1,1.4c-1-.2-1.6-1.1-1.4-2.1.2-1,1.1-1.6,2.1-1.4Z"></path><path class="st1" d="M11.8,5.2c1,.2,1.6,1.1,1.4,2.1-.2,1-1.1,1.6-2.1,1.4-1-.2-1.6-1.1-1.4-2.1.2-1,1.1-1.6,2.1-1.4Z"></path><path class="st1" d="M17.6,4c.6,0,1,.7.9,1.3-.1.6-.7,1-1.3.9-.6,0-1-.7-.9-1.3s.7-1,1.3-.9Z"></path><path class="st1" d="M24.8,4c1.3.3,2.2,1.5,1.9,2.8-.3,1.3-1.5,2.1-2.8,1.9-1.3-.3-2.1-1.5-1.9-2.8s1.5-2.2,2.8-1.9Z"></path><path class="st1" d="M30.3,9.6c.8.2,1.3.9,1.1,1.7-.2.8-.9,1.3-1.7,1.1-.8-.2-1.3-.9-1.1-1.7.2-.7.9-1.3,1.7-1.1Z"></path><path class="st1" d="M31.5,23.7c.9.2,1.5,1.1,1.3,2s-1.1,1.5-2,1.3-1.5-1.1-1.3-2,1.1-1.5,2-1.3Z"></path><path class="st1" d="M28,28.8c.4,0,.7.5.6.9,0,.4-.5.7-.9.6-.4,0-.7-.5-.6-.9,0-.4.5-.7.9-.6Z"></path><path class="st1" d="M23.5,31c.6.1,1.1.8.9,1.4-.1.6-.8,1.1-1.4.9-.6,0-1.1-.8-.9-1.4.1-.6.8-1.1,1.4-.9Z"></path><path class="st1" d="M10.4,27.3c1.5.3,2.4,1.7,2.1,3.2-.3,1.5-1.7,2.4-3.2,2.1-1.5-.3-2.4-1.7-2.1-3.2.3-1.4,1.7-2.4,3.2-2.1Z"></path><path class="st1" d="M5.9,23.5c.5.1.9.6.7,1.1,0,.5-.6.9-1.1.7-.5-.1-.9-.6-.7-1.1,0-.5.6-.9,1.1-.7Z"></path><path class="st0" d="M53.9,17.4c0-2.8-1.7-4.5-4.5-4.5s-4.5,1.7-4.5,4.5v5.2c0,2.8,1.7,4.5,4.5,4.5s4.5-1.7,4.5-4.5c0,0,0-5.2,0-5.2ZM56.4,22.4c0,4.1-2.7,6.9-6.9,6.9s-6.9-2.8-6.9-6.9v-4.8c0-4.1,2.8-6.9,6.9-6.9s6.9,2.8,6.9,6.9v4.8Z"></path><path class="st0" d="M72.2,17c0-2.6-1.5-4.1-4.1-4.1s-2.8.2-4.1.6v14.6c0,.7-.5,1.2-1.2,1.2s-1.2-.5-1.2-1.2v-15c0-.7.5-1.3,1.1-1.6,1.7-.6,3.5-.9,5.4-.9,3.9,0,6.5,2.6,6.5,6.6v10.9c0,.7-.5,1.2-1.2,1.2s-1.2-.5-1.2-1.2v-11.1h0Z"></path><path class="st0" d="M80.4,8c0-.7.5-1.2,1.2-1.2s1.2.5,1.2,1.2v3h4.1c.6,0,1.2.5,1.2,1.2s-.5,1.1-1.2,1.1h-4.1v11.1c0,1.5,1,2.5,2.3,2.5s1.5-.1,1.9-.1,1.1.4,1.1,1.1-.4,1.1-1,1.2c-.7.1-1.4.2-2.1.2-2.6,0-4.7-2-4.7-4.9V8h0Z"></path><path class="st0" d="M102.7,17.4c0-2.8-1.7-4.5-4.5-4.5s-4.5,1.7-4.5,4.5v5.2c0,2.8,1.7,4.5,4.5,4.5s4.5-1.7,4.5-4.5c0,0,0-5.2,0-5.2ZM105.2,22.4c0,4.1-2.7,6.9-6.9,6.9s-6.9-2.8-6.9-6.9v-4.8c0-4.1,2.7-6.9,6.9-6.9s6.9,2.8,6.9,6.9v4.8Z"></path><path class="st0" d="M110.2,8c0-.7.5-1.2,1.2-1.2s1.2.5,1.2,1.2v3h4.1c.6,0,1.2.5,1.2,1.2s-.5,1.1-1.2,1.1h-4.1v11.1c0,1.5,1,2.5,2.3,2.5s1.5-.1,1.9-.1,1.1.4,1.1,1.1-.4,1.1-1,1.2c-.7.1-1.4.2-2.1.2-2.6,0-4.7-2-4.7-4.9V8h0Z"></path><path class="st0" d="M132,17c0-2.6-1.5-4.1-4.1-4.1s-4.1,1.5-4.1,4.1v1.5h8.2v-1.5h0ZM123.8,20.7v2c0,2.6,1.5,4.3,4.1,4.3s2.8-.4,4.1-1c.2,0,.3-.1.5-.1.7,0,1.2.5,1.2,1.1s-.2.9-.7,1.1c-1.6.8-3.3,1.1-5.1,1.1-3.9,0-6.6-2.6-6.6-6.6v-5.5c0-3.9,2.6-6.6,6.6-6.6s6.5,2.6,6.5,6.6v1.9c0,.9-.7,1.7-1.7,1.7h-9,.1Z"></path><path class="st0" d="M144.4,22l-4.3,6.7c-.2.3-.6.6-1,.6-.6,0-1.2-.5-1.2-1.3s0-.4.2-.6l5-7.5-4.8-7.3c-.1-.2-.2-.5-.2-.7,0-.6.5-1.2,1.2-1.2s.8.2,1,.6l4.2,6.5,4.2-6.5c.2-.3.6-.6,1-.6.6,0,1.2.5,1.2,1.2s0,.5-.2.7l-4.8,7.3,5,7.5c.1.2.2.4.2.6,0,.6-.5,1.3-1.2,1.3s-.8-.2-1-.6l-4.3-6.7h-.2Z"></path><path class="st0" d="M155.2,8c0-.7.5-1.2,1.2-1.2s1.2.5,1.2,1.2v3h4.1c.6,0,1.2.5,1.2,1.2s-.5,1.1-1.2,1.1h-4.1v11.1c0,1.5,1,2.5,2.3,2.5s1.5-.1,1.9-.1,1.1.4,1.1,1.1-.4,1.1-1,1.2c-.7.1-1.4.2-2.1.2-2.6,0-4.7-2-4.7-4.9V8h.1Z"></path><g><path class="st2" d="M46.1,38.9h-2.3l-.5,1.5c0,0,0,.1-.1.1,0,0-.1,0-.2,0s-.1,0-.2,0c0,0,0-.1,0-.2s0,0,0,0,0,0,0,0l1.9-5.6c0,0,0-.1.1-.2,0,0,.1,0,.2,0s.1,0,.2,0,.1,0,.1.2l1.9,5.6s0,0,0,0,0,0,0,0c0,0,0,.1,0,.2,0,0-.1,0-.2,0s-.1,0-.2,0,0,0-.1-.1l-.5-1.5ZM45,35.5l-.9,2.8h1.9l-.9-2.8Z"></path><path class="st2" d="M56.5,37.9h-1c0,0-.1,0-.2,0s0-.1,0-.2,0-.1,0-.2c0,0,.1,0,.2,0h1.2c.1,0,.2,0,.3.1s.1.2.1.3v2.2c0,0,0,.2,0,.2,0,0,0,.1-.2.1-.2,0-.4.2-.7.2-.3,0-.5,0-.8,0-.6,0-1.1-.2-1.5-.6-.4-.4-.6-.9-.6-1.5v-2c0-.6.2-1.1.6-1.5.4-.4.9-.6,1.5-.6s.4,0,.7,0,.5.2.6.3c0,0,0,0,.1.1,0,0,0,0,0,.1,0,0,0,.1,0,.2,0,0-.1,0-.2,0s-.1,0-.2,0c-.1,0-.3-.1-.5-.2s-.4-.1-.6-.1c-.5,0-.8.1-1.1.4-.3.3-.4.6-.4,1.1v2.1c0,.4.1.8.4,1.1.3.3.6.4,1.1.4s.4,0,.6,0c.2,0,.4,0,.5-.1v-2Z"></path><path class="st2" d="M61.8,37.9h-1v2.5c0,0,0,.1,0,.2,0,0-.1,0-.2,0s-.1,0-.2,0c0,0,0-.1,0-.2v-5.4c0-.1,0-.2.1-.3,0,0,.2-.1.3-.1h1.5c.5,0,.9.2,1.2.5.3.3.5.7.5,1.2s-.1.8-.4,1.1c-.2.3-.6.5-1,.5l1.3,2.3s0,0,0,.1,0,0,0,.1c0,0,0,0-.1.1,0,0,0,0-.1,0-.1,0-.2,0-.2-.2l-1.5-2.6ZM62.1,37.3c.3,0,.6,0,.8-.3.2-.2.3-.4.3-.8s0-.3,0-.5c0-.1-.1-.3-.2-.4-.2-.2-.5-.3-.8-.3h-1.3v2.2h1.3Z"></path><path class="st2" d="M70.2,38.9h-2.3l-.5,1.5c0,0,0,.1-.1.1,0,0-.1,0-.2,0s-.1,0-.2,0c0,0,0-.1,0-.2s0,0,0,0,0,0,0,0l1.9-5.6c0,0,0-.1.1-.2,0,0,.1,0,.2,0s.1,0,.2,0,.1,0,.1.2l1.9,5.6s0,0,0,0,0,0,0,0c0,0,0,.1,0,.2,0,0-.1,0-.2,0s-.1,0-.2,0,0,0-.1-.1l-.5-1.5ZM69.1,35.5l-.9,2.8h1.9l-.9-2.8Z"></path><path class="st2" d="M74.4,35c0-.1,0-.2.1-.3,0,0,.2-.1.3-.1h1.3c.5,0,.9.2,1.3.5.3.3.5.8.5,1.3s-.2.9-.5,1.2c-.3.3-.8.5-1.3.5h-1.2v2.3c0,0,0,.1,0,.2,0,0-.1,0-.2,0s-.1,0-.2,0c0,0,0-.1,0-.2v-5.4ZM76.1,37.5c.4,0,.7-.1.9-.3.2-.2.3-.5.3-.8s-.1-.7-.3-.9c-.2-.2-.5-.3-.8-.3h-1.1v2.3h1.1Z"></path><path class="st2" d="M84.1,37.8h-2.5v2.6c0,0,0,.1,0,.2,0,0-.1,0-.2,0s-.1,0-.2,0c0,0,0-.1,0-.2v-5.6c0,0,0-.1,0-.2,0,0,.1,0,.2,0s.1,0,.2,0c0,0,0,.1,0,.2v2.4h2.5v-2.4c0,0,0-.1,0-.2,0,0,.1,0,.2,0s.1,0,.2,0c0,0,0,.1,0,.2v5.6c0,0,0,.1,0,.2,0,0-.1,0-.2,0s-.1,0-.2,0c0,0,0-.1,0-.2v-2.6Z"></path><path class="st2" d="M90.9,35.8l-1.1,4.6c0,0,0,.1-.1.2,0,0-.1,0-.2,0s-.1,0-.2,0c0,0-.1-.1-.1-.2l-1.4-5.5s0,0,0,0c0,0,0-.1,0-.2,0,0,.1,0,.2,0s.1,0,.2,0c0,0,0,0,.1.2l1.2,4.7,1.1-4.7c0,0,0-.1.1-.2,0,0,.1,0,.2,0s.2,0,.2,0c0,0,.1.1.1.2l1.1,4.7,1.2-4.7c0,0,0-.1.1-.2,0,0,.1,0,.2,0s.1,0,.2,0c0,0,0,.1,0,.2s0,0,0,0l-1.4,5.5c0,0,0,.1-.1.2,0,0-.1,0-.2,0s-.2,0-.2,0c0,0-.1-.1-.1-.2l-1.1-4.6Z"></path><path class="st2" d="M97.2,34.8c0,0,0-.1,0-.2,0,0,.1,0,.2,0s.1,0,.2,0c0,0,0,.1,0,.2v5.6c0,0,0,.1,0,.2s-.1,0-.2,0-.1,0-.2,0,0-.1,0-.2v-5.6Z"></path><path class="st2" d="M101.9,37.5c-.2,0-.3-.2-.4-.2-.1,0-.2-.2-.3-.3,0-.1-.2-.2-.2-.4,0-.2,0-.3,0-.5s0-.4.1-.6c0-.2.2-.3.4-.5.2-.1.4-.2.6-.3s.4-.1.7-.1.5,0,.8,0c.2,0,.4.1.6.2,0,0,.1,0,.1.1,0,0,0,.1,0,.2s0,.1,0,.2c0,0-.1,0-.2,0s0,0-.1,0c-.2,0-.3-.1-.5-.2-.2,0-.4,0-.6,0s-.3,0-.4,0-.3,0-.4.2c-.1,0-.2.2-.3.3,0,.1-.1.3-.1.4s0,.4.2.5c.1.1.3.3.5.4l.9.5c.2,0,.3.2.5.3.2,0,.3.2.4.3.1.1.2.3.3.4,0,.2.1.4.1.6s0,.5-.1.7c0,.2-.2.4-.4.5s-.4.2-.6.3-.5.1-.7.1-.5,0-.7,0c-.2,0-.5-.1-.7-.2,0,0,0,0-.1-.1,0,0,0-.1,0-.2s0-.1,0-.2c0,0,.1,0,.2,0s0,0,.1,0c.2,0,.4.2.6.2.2,0,.4,0,.6,0,.4,0,.7,0,.9-.3.2-.2.3-.5.3-.8s0-.3,0-.4c0-.1-.1-.2-.2-.3,0,0-.2-.2-.3-.2s-.2-.1-.3-.2l-.9-.5Z"></path><path class="st2" d="M107.8,40.6c-.1,0-.2,0-.3-.1s-.1-.2-.1-.3v-5.2c0-.1,0-.2.1-.3,0,0,.2-.1.3-.1h2.5c0,0,.1,0,.2,0s0,.1,0,.2,0,.1,0,.2c0,0-.1,0-.2,0h-2.3v2h2.2c0,0,.1,0,.2,0,0,0,0,.1,0,.2s0,.1,0,.2c0,0-.1,0-.2,0h-2.2v2.2h2.3c0,0,.1,0,.2,0,0,0,0,.1,0,.2s0,.1,0,.2c0,0-.1,0-.2,0h-2.5Z"></path><path class="st2" d="M116.7,36.6c0-.6.2-1.1.6-1.5.4-.4.9-.6,1.5-.6s.4,0,.6,0,.4.2.6.3c0,0,.1.1.1.2s0,.1,0,.2c0,0-.1,0-.2,0s0,0,0,0,0,0,0,0c-.1,0-.3-.2-.4-.2-.2,0-.3,0-.5,0-.5,0-.8.1-1.1.4-.3.3-.4.6-.4,1.1v2.1c0,.5.1.8.4,1.1.3.3.6.4,1.1.4s.3,0,.5,0c.2,0,.3-.1.4-.2,0,0,0,0,0,0s0,0,0,0c0,0,.1,0,.2,0s0,.1,0,.2,0,.2-.1.2c-.2.1-.4.2-.6.3s-.4,0-.6,0c-.6,0-1.1-.2-1.5-.6-.4-.4-.6-.9-.6-1.5v-2Z"></path><path class="st2" d="M127.1,38.7c0,.6-.2,1.1-.5,1.4-.4.4-.8.5-1.4.5s-1.1-.2-1.4-.5c-.4-.4-.5-.8-.5-1.4v-2.3c0-.6.2-1,.5-1.4.4-.4.8-.5,1.4-.5s1.1.2,1.4.5.5.8.5,1.4v2.3ZM126.5,36.4c0-.4-.1-.8-.4-1s-.6-.4-1-.4-.7.1-1,.4-.4.6-.4,1v2.3c0,.4.1.8.4,1s.6.4,1,.4.7-.1,1-.4.4-.6.4-1v-2.3Z"></path><path class="st2" d="M134.5,35.8l-1.6,3c0,.1-.2.2-.3.2s-.2,0-.3-.2l-1.6-3v4.5c0,0,0,.1,0,.2s-.1,0-.2,0-.1,0-.2,0,0-.1,0-.2v-5.5c0,0,0-.2,0-.2s.1-.1.2-.1.2,0,.3.2l1.8,3.5,1.8-3.5c0-.1.2-.2.3-.2s.2,0,.2.1,0,.2,0,.2v5.5c0,0,0,.1,0,.2,0,0-.1,0-.2,0s-.1,0-.2,0c0,0,0-.1,0-.2v-4.5Z"></path><path class="st2" d="M138.2,35c0-.1,0-.2.1-.3,0,0,.2-.1.3-.1h1.3c.5,0,.9.2,1.3.5.3.3.5.8.5,1.3s-.2.9-.5,1.2c-.3.3-.8.5-1.3.5h-1.2v2.3c0,0,0,.1,0,.2,0,0-.1,0-.2,0s-.1,0-.2,0c0,0,0-.1,0-.2v-5.4ZM140,37.5c.4,0,.7-.1.9-.3.2-.2.3-.5.3-.8s-.1-.7-.3-.9-.5-.3-.8-.3h-1.1v2.3h1.1Z"></path><path class="st2" d="M147.2,38.9h-2.3l-.5,1.5c0,0,0,.1-.1.1,0,0-.1,0-.2,0s-.1,0-.2,0c0,0,0-.1,0-.2s0,0,0,0,0,0,0,0l1.9-5.6c0,0,0-.1.1-.2,0,0,.1,0,.2,0s.1,0,.2,0c0,0,.1,0,.1.2l1.9,5.6s0,0,0,0,0,0,0,0c0,0,0,.1,0,.2,0,0-.1,0-.2,0s-.1,0-.2,0c0,0,0,0-.1-.1l-.5-1.5ZM146,35.5l-.9,2.8h1.9l-.9-2.8Z"></path><path class="st2" d="M151.9,35.8v4.5c0,0,0,.1,0,.2s-.1,0-.2,0-.1,0-.2,0,0-.1,0-.2v-5.5c0,0,0-.2,0-.2s.1-.1.2-.1c.1,0,.2,0,.3.2l2.5,4.7v-4.6c0,0,0-.1,0-.2s.1,0,.2,0,.2,0,.2,0,0,.1,0,.2v5.5c0,0,0,.2-.1.2,0,0-.2.1-.2.1s-.1,0-.2,0c0,0,0,0-.1-.1l-2.5-4.7Z"></path><path class="st2" d="M159.9,37.9l-1.7-3s0,0,0-.1,0-.1,0-.2c0,0,.1,0,.2,0s.2,0,.2.1l1.5,2.6,1.5-2.6s0,0,.1-.1c0,0,0,0,.1,0,0,0,.1,0,.2,0s0,.1,0,.2,0,0,0,.1l-1.7,3v2.5c0,0,0,.1,0,.2,0,0-.1,0-.2,0s-.1,0-.2,0c0,0,0-.1,0-.2v-2.5Z"></path></g></svg> 