<?xml version="1.0" encoding="UTF-8"?> <svg xmlns="http://www.w3.org/2000/svg" width="16" height="16" viewBox="0 0 16 16" fill="none"><g id="Icon / Youtube"><path id="Vector" d="M14.3956 4.80198C14.3196 4.52025 14.1712 4.26332 13.9651 4.05676C13.759 3.85021 13.5024 3.70122 13.2209 3.62465C12.1769 3.33798 8.00022 3.33332 8.00022 3.33332C8.00022 3.33332 3.82422 3.32865 2.77955 3.60265C2.49817 3.68275 2.2421 3.83384 2.03593 4.04141C1.82976 4.24898 1.68041 4.50607 1.60222 4.78798C1.32689 5.83198 1.32422 7.99732 1.32422 7.99732C1.32422 7.99732 1.32155 10.1733 1.59489 11.2067C1.74822 11.778 2.19822 12.2293 2.77022 12.3833C3.82489 12.67 7.99022 12.6747 7.99022 12.6747C7.99022 12.6747 12.1669 12.6793 13.2109 12.406C13.4926 12.3295 13.7494 12.1809 13.956 11.9748C14.1626 11.7686 14.3118 11.5121 14.3889 11.2307C14.6649 10.1873 14.6669 8.02265 14.6669 8.02265C14.6669 8.02265 14.6802 5.84598 14.3956 4.80198ZM6.66422 10.0033L6.66755 6.00332L10.1389 8.00665L6.66422 10.0033Z" fill="#163156"></path></g></svg> 